<?xml version="1.0" encoding="UTF-8"?>
<svg id="Layer_1" xmlns="http://www.w3.org/2000/svg" version="1.1" viewBox="0 0 151.51 110.38">
  <!-- Generator: Adobe Illustrator 29.8.3, SVG Export Plug-In . SVG Version: 2.1.1 Build 3)  -->
  <defs>
    <style>
      .st0 {
        fill: #d80000;
      }

      .st1 {
        fill: #fff;
      }

      .st2 {
        fill: #ff0;
      }
    </style>
  </defs>
  <g>
    <path class="st2" d="M120.49,62.62c2.59,1.65,3.51,4.86,2.04,7.15s-3.67,3.51-6.26,1.85-4.59-5.55-3.12-7.84,4.75-2.82,7.35-1.16Z"/>
    <path d="M120.98,61.86c2.91,1.56,4.71,5.63,2.64,8.65-3.49,5.4-9.22,2.65-11.07-2.47-2.24-5.27,4.05-8.81,8.43-6.18h0ZM120,63.39c-1.86-1.46-5.14-1.56-6.45.69-1.56,2.9,2.48,7.95,5.56,7.12,3.17-1.27,3.9-5.68.88-7.81h0Z"/>
  </g>
  <path d="M119.1,64.73c1.12.72,1.34,2.26.75,3.18s-1.75.87-2.88.15-1.4-1.77-.81-2.69,1.81-1.36,2.94-.64Z"/>
  <path class="st1" d="M116.93,65.51c.66.42.64,1.56.15,2.31s-1.24.84-1.9.42-.72-1.19-.24-1.94,1.33-1.21,1.99-.79Z"/>
  <path d="M90.91,10.2c.04.67-.44.63-.79.96,0,0-.97.7-.97.7-7.48,5-11.1,13.76-9.07,22.51.59,3.11,1.43,6.21,2.32,9.25,2.85,9.94,9.99,19,19.84,22.57,1.83.73,3.83,1.24,5.78,1.53,0,0,.59.1.59.1.2.02.39.1.56.45l-.1.99c-.38.49-.85.18-1.29.17-2.08-.25-4.21-.72-6.19-1.43-10.72-3.57-17.74-13.33-22.22-23.25-2.47-5.48-4.12-11.7-2.76-17.69,1.38-5.98,5.16-10.95,9.51-15.03,1.09-1.01,2.27-1.93,3.55-2.7.18-.12.37-.24.75-.02l.49.87h0Z"/>
  <path d="M132.71,5.06c8.26,3.11,15.5,9.48,17.91,18.16,1.28,4.98.98,10.3.35,15.36-1.24,10.22-5.62,20.31-13.62,27.07-1.66,1.45-3.6,2.58-5.62,3.46-1.39.63-2.5,1.09-4.16.02,0,0-.32-.95-.32-.95.38-1.38.97-1.94,1.65-2.3,2.04-1.04,4.02-2.23,5.9-3.55,7.95-5.37,11.71-14.87,13.04-24.18.73-6.13,1.21-12.83-1.99-18.32-2.95-5.31-8.5-9.21-14.27-10.86,0,0,1.14-3.91,1.14-3.91h0Z"/>
  <path d="M123.58,59.19c1.03.68,2.14,1.34,3.07,2.31,2.67,3.05,2.51,7.96.38,11.27-4.75,7.65-16.91,5.76-18.48-3.28-1.58-8.35,7.89-14.92,15.03-10.3h0ZM123.04,60.03c-6.18-3.98-14.08,2.06-12.32,9.01.92,4.08,5.23,6.9,9.31,5.81,4.04-.92,6.79-5.25,5.99-9.31-.54-1.96-1.17-4.27-2.98-5.5h0Z"/>
  <path d="M98.38,2.66c2.54,1.69,3.19,5.35,1.59,7.86-1.03,1.88-3.11,3.81-5.43,2.93-3.37-1.29-6.53-5.69-4.43-9.22,1.69-2.75,5.71-3.43,8.27-1.57h0ZM97.54,3.98c-2.76-1.68-7.23.81-5.81,4.27.65,1.86,2.63,4.51,4.81,4.08,3.45-1.37,4.59-6.29,1-8.36h0Z"/>
  <path d="M130.3,1.04c5.71,4.44-1.08,13.55-7.05,9.52-5.86-4.69.79-13.59,7.05-9.52h0ZM129.06,2.71c-4.73-3.63-9.69,3.17-5.03,6.79,4.99,3.61,10.01-2.91,5.03-6.79h0Z"/>
  <path d="M122.23,75.66c.44,11.75-11.51,21.38-20.42,26.97-11.58,7.05-28.02,11.91-39.77,2.64-6.91-5.49-10.3-14.19-11.64-22.63-1.19-7-.89-14.27-2.6-21.12-.13-.46-.33-.91-.36-.97,0-.04.05.1.49.32.36.2,1.16.24,1.5.07-3.32,3.9-6.51,11.48-9.63,16.98-3.28,5.57-9.14,17.43-17.25,14.65-3.1-1.29-6.2-2.71-9.18-4.28-3.61-2-7.45-4.02-10.14-7.37-7.88-10.91.4-25.31,6.91-34.75,3.12-4.41,6.6-8.53,10.3-12.42,3.88-3.72,7.26-8.07,12.28-10.36,0,0,.65.76.65.76-2.95,4.56-7.29,7.58-10.73,11.67C14.26,45.12-.5,62.81,3.97,75.96c.86,2.27,2.31,4.05,4.3,5.52,4.11,3.04,8.93,5.34,13.64,7.39,0,0,1.8.74,1.8.74,1.42.41,2.69-.14,3.94-1.14,3.64-3.16,5.89-8.2,8-12.62,2.2-4.77,4.05-9.67,6.46-14.7,1.2-2.23,2.41-5.04,5.18-6.18,3.36-1.27,5.91,1.75,6.74,4.4,3.27,9.56,1.79,19.95,4.6,29.56,5.42,21.34,25.48,21.2,41.32,10.75,6.53-4.23,17.12-14.4,14.67-22.7,0,0,7.62-1.32,7.62-1.32h0Z"/>
  <g>
    <ellipse class="st0" cx="39.86" cy="17.16" rx="11.77" ry="13.2" transform="translate(-.22 .51) rotate(-.73)"/>
    <path d="M28.59,17.3c.12,8.93,12.04,15.19,17.99,7.21,5.01-6.26,1.85-18.17-6.86-18.87-6.19-.61-11.33,5.55-11.12,11.66h0ZM27.59,17.31c-.36-12.38,13.05-20.48,22.46-10.84,5.56,5.64,5.56,15.29.42,21.23-5.09,6.39-15.62,6.47-20.15-.42-1.98-2.99-2.63-6.51-2.73-9.97h0Z"/>
  </g>
  <g>
    <polygon class="st1" points="34.9 5.46 38.08 12.97 40.63 4.13 34.9 5.46"/>
    <path d="M38.17,14.46l-3.96-9.35,7.14-1.66-3.18,11.01ZM35.59,5.81l2.4,5.66,1.92-6.66-4.32,1Z"/>
  </g>
  <g>
    <path class="st1" d="M42.18,4.43s.38,7.54-.73,8.97c0,0,5.56-3.37,5.53-6.36,0,0-2.99-3.58-4.8-2.61Z"/>
    <path d="M39.42,15.22l1.64-2.12c.72-.93.77-5.8.62-8.64l-.02-.32.28-.15c2.11-1.13,5.09,2.33,5.42,2.73l.11.14v.18c.04,3.24-5.53,6.65-5.77,6.79l-2.29,1.39ZM42.7,4.77c.06,1.43.16,5.12-.28,7.38,1.67-1.22,3.94-3.23,4.06-4.93-.76-.86-2.62-2.63-3.78-2.44Z"/>
  </g>
  <g>
    <path class="st1" d="M32.6,7.26s1.48,6.24,2.74,7.07c0,0-5.44-1.07-6.12-3.51,0,0,1.64-3.81,3.38-3.56Z"/>
    <path d="M37.73,15.31l-2.49-.49c-.59-.12-5.77-1.21-6.5-3.87l-.05-.17.07-.16c.18-.43,1.85-4.16,3.91-3.86l.34.05.08.33c.59,2.51,1.77,6.28,2.53,6.77l2.12,1.4ZM29.75,10.85c.51,1.27,2.74,2.18,4.38,2.67-.87-1.69-1.62-4.52-1.93-5.74-.92.26-1.98,2.02-2.46,3.07Z"/>
  </g>
  <g>
    <path class="st1" d="M49.26,9.84s-3.29,6.2-5.94,6.62c0,0,5.7,1.54,8.3-.77,0,0-.38-4.84-2.36-5.84Z"/>
    <path d="M47.24,17.46c-2.08,0-3.92-.48-4.05-.52l-2.27-.61,2.32-.37c1.98-.31,4.7-4.69,5.58-6.36l.23-.43.44.22c2.16,1.1,2.59,5.72,2.63,6.25l.02.25-.18.17c-1.23,1.1-3.05,1.41-4.71,1.41ZM44.91,16.26c1.72.27,4.55.45,6.18-.8-.13-1.27-.62-3.88-1.67-4.89-.71,1.26-2.55,4.3-4.51,5.69Z"/>
  </g>
  <g>
    <path class="st1" d="M28.61,14.75s5.5,3.9,8.03,2.92c0,0-4.43,4.3-7.7,3.54,0,0-1.67-4.55-.33-6.46Z"/>
    <path d="M29.76,21.8c-.31,0-.62-.03-.92-.1l-.26-.06-.09-.25c-.18-.49-1.72-4.86-.27-6.92l.29-.41.41.29c1.47,1.04,5.69,3.59,7.57,2.87l2.29-.89-1.76,1.71c-.17.17-3.93,3.77-7.24,3.77ZM29.32,20.77c1.98.27,4.43-1.36,5.83-2.48-2.31-.26-5.2-2.04-6.36-2.82-.54,1.46.11,4.06.53,5.29Z"/>
  </g>
  <g>
    <path class="st1" d="M40.03,30.36l-.15-8.77,5.55,6.69s-2.55,2.47-5.4,2.08Z"/>
    <path d="M40.66,30.9c-.23,0-.47-.02-.7-.05l-.42-.06-.18-10.62,6.76,8.14-.33.32c-.1.1-2.36,2.26-5.11,2.26ZM40.52,29.9c1.8.05,3.51-1.11,4.21-1.67l-4.33-5.22.12,6.89Z"/>
  </g>
  <g>
    <path class="st1" d="M36.33,29.5s.06-6.45,1.3-7.88c0,0-7.83,1.99-6.82,3.86s4.68,4.34,5.52,4.02Z"/>
    <path d="M36.18,30.02c-1.5,0-4.9-2.6-5.81-4.3-.19-.35-.2-.72-.04-1.09.79-1.79,6.11-3.22,7.17-3.49l1.55-.39-1.05,1.21c-.82.94-1.16,5.13-1.18,7.55v.34s-.32.12-.32.12c-.1.04-.21.05-.33.05ZM36.68,22.4c-2.31.68-5.06,1.78-5.43,2.63-.04.1-.03.15,0,.22.86,1.6,3.54,3.38,4.59,3.73.03-1.34.18-4.64.84-6.57Z"/>
  </g>
  <g>
    <path class="st1" d="M46.96,27.11s-2.29-5.92-3.93-6.71c0,0,7.91-1.53,7.63.63s-2.81,6.02-3.7,6.08Z"/>
    <path d="M46.62,27.63l-.13-.34c-.86-2.22-2.61-5.93-3.68-6.44l-1.37-.65,1.49-.29c1.07-.21,6.46-1.17,7.84.13.3.28.43.64.38,1.05-.27,2.11-2.85,6.42-4.16,6.51l-.37.02ZM44.15,20.71c1.28,1.48,2.56,4.44,3.07,5.69.89-.8,2.72-3.67,2.94-5.44.01-.09,0-.14-.07-.2-.65-.61-3.58-.43-5.94-.06Z"/>
  </g>
</svg>